<?xml version="1.0" encoding="utf-8"?>
<!-- Generator: $$$/GeneralStr/196=Adobe Illustrator 27.6.0, SVG Export Plug-In . SVG Version: 6.00 Build 0)  -->
<svg version="1.1" id="Ebene_1" xmlns="http://www.w3.org/2000/svg" xmlns:xlink="http://www.w3.org/1999/xlink" x="0px" y="0px"
	 viewBox="0 0 19.2 22.2" style="enable-background:new 0 0 19.2 22.2;" xml:space="preserve">
<style type="text/css">
	.st0{display:none;fill-rule:evenodd;clip-rule:evenodd;fill:#E6E6E6;}
	.st1{fill-rule:evenodd;clip-rule:evenodd;fill:#1D4ED8;}
	.st2{display:none;fill:#333333;}
	.st3{display:none;fill:#003399;}
</style>
<g>
	<polygon class="st0" points="-50.4,-40.9 69.6,-40.9 69.6,79.1 -50.4,79.1 	"/>
	<path class="st1" d="M14.4,2.8L13.1,2l-1.7,1l0,0L3.5,7.6v2l7-4v6l-7.8,4.5l-0.9-0.5v-1l7-4v-2l-7,4v-6L9.6,2l1.7-1L9.6,0L4.8,2.8
		L0,5.5V11v5.5l4.8,2.8l1.3,0.8L9.7,18l5.2-3l-1.7-1l-7,4l-1.7-1l7.8-4.5v-8L13.1,4l4.4,2.5v9.1l-7.8,4.5l0,0l-1.7,1l1.7,1l4.8-2.8
		l4.8-2.8V11V5.5L14.4,2.8L14.4,2.8z M14,6.5v6l1.7,1v-6L14,6.5L14,6.5z"/>
	<path class="st2" d="M-21.4,32.7v-1.4h-3.5v-5.7h-1.6v7.1H-21.4L-21.4,32.7z M-13,29.2L-13,29.2c0-0.5-0.1-1-0.3-1.4
		s-0.4-0.8-0.8-1.2c-0.3-0.3-0.7-0.6-1.2-0.8c-0.5-0.2-1-0.3-1.5-0.3s-1,0.1-1.5,0.3c-0.5,0.2-0.9,0.5-1.2,0.8
		c-0.3,0.3-0.6,0.7-0.8,1.2c-0.2,0.4-0.3,0.9-0.3,1.4l0,0c0,0.5,0.1,1,0.3,1.4c0.2,0.4,0.4,0.8,0.8,1.2c0.3,0.3,0.7,0.6,1.2,0.8
		s1,0.3,1.5,0.3s1-0.1,1.5-0.3s0.9-0.5,1.2-0.8s0.6-0.7,0.8-1.2C-13.1,30.1-13,29.7-13,29.2L-13,29.2z M-14.6,29.2
		c0,0.3-0.1,0.6-0.2,0.9c-0.1,0.3-0.2,0.5-0.4,0.7s-0.4,0.4-0.7,0.5c-0.3,0.1-0.5,0.2-0.9,0.2c-0.3,0-0.6-0.1-0.9-0.2
		s-0.5-0.3-0.7-0.5s-0.3-0.4-0.4-0.7c-0.1-0.3-0.2-0.6-0.2-0.9l0,0c0-0.3,0.1-0.6,0.2-0.9s0.2-0.5,0.4-0.7c0.2-0.2,0.4-0.4,0.7-0.5
		c0.3-0.1,0.5-0.2,0.9-0.2c0.3,0,0.6,0.1,0.9,0.2c0.3,0.1,0.5,0.3,0.7,0.5s0.3,0.4,0.4,0.7C-14.7,28.6-14.6,28.9-14.6,29.2
		L-14.6,29.2L-14.6,29.2z M-5.5,32.7l-1.7-2.5c0.5-0.2,0.8-0.4,1.1-0.8c0.3-0.4,0.4-0.8,0.4-1.4l0,0c0-0.7-0.2-1.3-0.7-1.7
		c-0.5-0.4-1.1-0.6-2-0.6h-3.2v7.1h1.6v-2.3h1.2l1.5,2.3L-5.5,32.7L-5.5,32.7z M-7.3,28.1c0,0.3-0.1,0.5-0.3,0.7
		c-0.2,0.2-0.5,0.3-0.9,0.3H-10v-2h1.5c0.4,0,0.7,0.1,0.9,0.3C-7.4,27.5-7.3,27.7-7.3,28.1L-7.3,28.1L-7.3,28.1z M1.1,32.7v-1.4
		h-3.8v-1.5h3.3v-1.4h-3.3V27H1v-1.4h-5.3v7.1H1.1L1.1,32.7z M9.6,32.7v-7.1H7.9l-1.9,3l-1.9-3H2.5v7.1H4v-4.6l2,3l0,0l2-3v4.6H9.6
		L9.6,32.7z M15.9,32.7v-7.1h-1.6v7.1H15.9L15.9,32.7z M23.3,28.1L23.3,28.1c0-0.4-0.1-0.7-0.2-1s-0.3-0.6-0.5-0.8
		c-0.2-0.2-0.5-0.4-0.8-0.5s-0.7-0.2-1.1-0.2h-2.9v7.1h1.6v-2.1h1.2c0.4,0,0.8-0.1,1.1-0.2c0.3-0.1,0.7-0.3,0.9-0.5
		c0.3-0.2,0.5-0.5,0.6-0.8C23.2,28.9,23.3,28.5,23.3,28.1L23.3,28.1z M21.7,28.1c0,0.3-0.1,0.6-0.3,0.8c-0.2,0.2-0.5,0.3-0.9,0.3
		h-1.2V27h1.2c0.4,0,0.7,0.1,0.9,0.3C21.6,27.5,21.7,27.8,21.7,28.1L21.7,28.1L21.7,28.1z M29.6,30.6L29.6,30.6c0-0.3,0-0.6-0.1-0.8
		c-0.1-0.2-0.2-0.4-0.4-0.6c-0.2-0.2-0.4-0.3-0.7-0.4c-0.3-0.1-0.6-0.2-1-0.3c-0.3-0.1-0.6-0.2-0.8-0.2c-0.2-0.1-0.4-0.1-0.5-0.2
		s-0.2-0.1-0.2-0.2s-0.1-0.2-0.1-0.3l0,0c0-0.2,0.1-0.3,0.2-0.4c0.2-0.1,0.4-0.2,0.7-0.2c0.3,0,0.6,0.1,0.9,0.2s0.6,0.3,0.9,0.5
		l0.8-1.2c-0.4-0.3-0.8-0.5-1.2-0.7c-0.4-0.2-0.9-0.2-1.4-0.2c-0.4,0-0.7,0.1-1,0.2s-0.6,0.2-0.8,0.4c-0.2,0.2-0.4,0.4-0.5,0.7
		c-0.1,0.3-0.2,0.6-0.2,0.9l0,0c0,0.4,0.1,0.6,0.2,0.9c0.1,0.2,0.3,0.4,0.5,0.6s0.4,0.3,0.7,0.4c0.3,0.1,0.6,0.2,1,0.3
		c0.3,0.1,0.5,0.1,0.7,0.2s0.3,0.1,0.4,0.2s0.2,0.1,0.2,0.2s0.1,0.2,0.1,0.3l0,0c0,0.2-0.1,0.4-0.3,0.5c-0.2,0.1-0.4,0.2-0.8,0.2
		s-0.8-0.1-1.1-0.2c-0.3-0.2-0.7-0.4-1-0.6L24,31.7c0.4,0.4,0.9,0.7,1.4,0.9s1,0.3,1.6,0.3c0.4,0,0.7,0,1-0.1s0.6-0.2,0.8-0.4
		c0.2-0.2,0.4-0.4,0.5-0.7C29.5,31.3,29.6,31,29.6,30.6L29.6,30.6z M37,29.6v-4h-1.6v4.1c0,0.6-0.1,1-0.4,1.3
		c-0.3,0.3-0.6,0.4-1.1,0.4S33,31.3,32.8,31c-0.3-0.3-0.4-0.7-0.4-1.3v-4h-1.6v4c0,1,0.3,1.8,0.8,2.4c0.5,0.5,1.3,0.8,2.2,0.8
		c0.5,0,0.9-0.1,1.3-0.2c0.4-0.1,0.7-0.3,1-0.6s0.5-0.6,0.6-1C36.9,30.6,37,30.2,37,29.6L37,29.6z M45.6,32.7v-7.1H44l-1.9,3l-1.9-3
		h-1.7v7.1H40v-4.6l2,3l0,0l2-3v4.6H45.6L45.6,32.7z"/>
	<path class="st3" d="M-10.5,35.6V35h-2.6v0.6h1v2.5h0.7v-2.5H-10.5L-10.5,35.6z M-2.8,38.1l-1.3-3.2h-0.6L-6,38.1h0.7l0.3-0.7h1.3
		l0.3,0.7H-2.8L-2.8,38.1z M-4,36.8h-0.8l0.4-1L-4,36.8L-4,36.8z M4.7,37.6v-1.4H3.3v0.6H4v0.5c-0.2,0.1-0.4,0.2-0.6,0.2
		c-0.1,0-0.3,0-0.4-0.1c-0.1,0-0.2-0.1-0.3-0.2c-0.1-0.1-0.2-0.2-0.2-0.3s-0.1-0.3-0.1-0.4l0,0c0-0.1,0-0.3,0.1-0.4
		c0-0.1,0.1-0.2,0.2-0.3c0.1-0.1,0.2-0.2,0.3-0.2c0.1-0.1,0.2-0.1,0.4-0.1c0.1,0,0.2,0,0.2,0c0.1,0,0.1,0,0.2,0.1
		c0.1,0,0.1,0.1,0.2,0.1s0.1,0.1,0.2,0.1l0.4-0.5c-0.1-0.1-0.2-0.1-0.3-0.2C4.2,35,4.1,35,4,35c0,0-0.2,0-0.3-0.1
		c-0.1,0-0.2,0-0.4,0s-0.5,0-0.7,0.1s-0.4,0.2-0.5,0.3c-0.1,0.1-0.3,0.3-0.3,0.5c-0.1,0.2-0.1,0.4-0.1,0.6l0,0c0,0.2,0,0.4,0.1,0.6
		c0.1,0.2,0.2,0.4,0.3,0.5s0.3,0.3,0.5,0.3c0.2,0.1,0.4,0.1,0.7,0.1s0.5,0,0.8-0.1C4.3,37.9,4.5,37.8,4.7,37.6L4.7,37.6z M11.7,38.1
		v-0.6h-1.6V35H9.5v3.1H11.7L11.7,38.1z M17.1,38.1V35h-0.7v3.1H17.1L17.1,38.1z M24.8,38.1V35h-0.7v1.9L22.6,35H22v3.1h0.7v-2
		l1.5,2H24.8L24.8,38.1z M32,38.1v-0.6h-1.7v-0.7h1.5v-0.6h-1.5v-0.6H32V35h-2.4v3.1H32L32,38.1z"/>
</g>
</svg>
