<?xml version="1.0" encoding="utf-8"?>
<!-- Generator: $$$/GeneralStr/196=Adobe Illustrator 27.6.0, SVG Export Plug-In . SVG Version: 6.00 Build 0)  -->
<svg version="1.1" xmlns="http://www.w3.org/2000/svg" xmlns:xlink="http://www.w3.org/1999/xlink" x="0px" y="0px"
	 viewBox="0 0 3509.1 487.6" style="enable-background:new 0 0 3509.1 487.6;" xml:space="preserve">
<style type="text/css">
	.st0{display:none;}
	.st1{display:inline;fill:#101624;}
	.st2{fill-rule:evenodd;clip-rule:evenodd;fill:#1D4ED8;}
	.st3{fill:#FFFFFF;}
</style>
<g id="Background" class="st0">
	<rect x="-1.6" y="-13.3" class="st1" width="3530.5" height="501.4"/>
</g>
<g id="Logo">
	<g>
		<path class="st2" d="M308.4,66.2l-27.8-17.1l-36.4,21.4l0,0L75.3,168.9v42.8L225,126.1v128.3L58.2,350.7L39,340v-21.4l149.7-85.5
			v-42.8L39,275.8V147.5l166.8-98.4l36.4-21.4L205.8,6.4L103.1,66.2L0.5,124v117.6v117.6l102.7,59.9l27.8,17.1l77-44.9l111.2-64.2
			l-36.4-21.4l-149.7,85.5l-36.4-21.4l166.8-96.2V102.6l17.1-10.7l94.1,53.5V340l-166.8,96.2l0,0l-36.4,21.4l36.4,21.4l102.7-59.9
			l102.7-59.9V241.6V124L308.4,66.2L308.4,66.2z M299.9,145.4v128.3l36.4,21.4V166.8L299.9,145.4L299.9,145.4z"/>
	</g>
</g>
<g id="Schrift">
	<g>
		<path class="st3" d="M763.9,184.4c-1.1-10.7-5.6-19.1-13.7-25c-8.1-5.9-19-8.9-32.9-8.9c-9.4,0-17.4,1.3-23.8,3.9
			c-6.5,2.6-11.4,6.2-14.8,10.9c-3.4,4.6-5.1,9.9-5.1,15.7c-0.2,4.9,0.9,9.1,3.1,12.8c2.3,3.6,5.4,6.8,9.4,9.4
			c4,2.6,8.6,4.9,13.8,6.8c5.2,1.9,10.8,3.5,16.8,4.9l24.5,5.9c11.9,2.7,22.8,6.2,32.8,10.7c9.9,4.4,18.6,9.9,25.8,16.4
			c7.3,6.5,12.9,14.1,17,22.9c4,8.8,6.1,18.9,6.2,30.2c-0.1,16.7-4.3,31.1-12.7,43.3c-8.4,12.2-20.5,21.7-36.2,28.4
			c-15.8,6.7-34.7,10.1-56.9,10.1c-22,0-41.2-3.4-57.5-10.1c-16.3-6.7-29-16.8-38.1-30c-9.1-13.3-13.9-29.7-14.3-49.3H663
			c0.6,9.1,3.3,16.8,7.9,22.8c4.7,6.1,10.9,10.7,18.8,13.7s16.8,4.6,26.7,4.6c9.8,0,18.3-1.4,25.5-4.3c7.2-2.8,12.9-6.8,16.8-11.9
			s6-10.9,6-17.4c0-6.1-1.8-11.3-5.4-15.4c-3.6-4.2-8.8-7.7-15.7-10.7c-6.9-2.9-15.3-5.6-25.2-8l-29.7-7.5
			c-23-5.6-41.1-14.3-54.5-26.2c-13.3-11.9-19.9-27.9-19.8-48.1c-0.1-16.5,4.3-30.9,13.2-43.3c8.9-12.3,21.2-22,36.8-28.9
			c15.6-6.9,33.4-10.4,53.3-10.4c20.2,0,37.9,3.5,53.1,10.4c15.1,6.9,26.9,16.6,35.4,28.9c8.4,12.3,12.8,26.6,13.1,42.9H763.9z"/>
		<path class="st3" d="M969.2,174.1v42.6H846.1v-42.6H969.2z M874,125.1h56.7v190.7c0,5.2,0.8,9.3,2.4,12.2c1.6,2.9,3.8,4.9,6.7,6.1
			c2.9,1.2,6.2,1.7,10.1,1.7c2.7,0,5.3-0.2,8-0.7c2.7-0.5,4.7-0.9,6.1-1.1l8.9,42.2c-2.8,0.9-6.8,1.9-12,3.1
			c-5.1,1.2-11.4,1.9-18.8,2.2c-13.7,0.5-25.6-1.3-35.9-5.5s-18.2-10.7-23.9-19.4c-5.7-8.8-8.5-19.9-8.4-33.3V125.1z"/>
		<path class="st3" d="M1137.3,291.6V174.1h56.7v204.5h-54.5v-37.2h-2.1c-4.6,12-12.3,21.6-23,28.9c-10.7,7.3-23.7,10.9-39.1,10.9
			c-13.7,0-25.7-3.1-36.1-9.3c-10.4-6.2-18.5-15-24.3-26.5c-5.8-11.5-8.8-25.2-8.9-41.1V174.1h56.7v120.1
			c0.1,12.1,3.3,21.6,9.7,28.6c6.4,7,15,10.5,25.7,10.5c6.8,0,13.2-1.6,19.2-4.7c5.9-3.2,10.8-7.8,14.4-14
			C1135.6,308.4,1137.4,300.7,1137.3,291.6z"/>
		<path class="st3" d="M1314.7,382c-15.5,0-29.6-4-42.1-12.1c-12.6-8-22.5-19.9-29.8-35.6c-7.3-15.7-11-34.9-11-57.7
			c0-23.4,3.8-42.9,11.3-58.5c7.5-15.6,17.6-27.3,30.2-35c12.6-7.8,26.3-11.7,41.3-11.7c11.5,0,21,1.9,28.7,5.8
			c7.7,3.9,13.9,8.7,18.6,14.4c4.7,5.7,8.4,11.3,10.9,16.8h1.7V106h56.6v272.7h-55.9v-32.8h-2.4c-2.7,5.7-6.4,11.3-11.3,16.8
			c-4.8,5.5-11.1,10.1-18.8,13.8C1335,380.2,1325.7,382,1314.7,382z M1332.6,336.9c9.1,0,16.9-2.5,23.2-7.5
			c6.3-5,11.2-12.1,14.6-21.1c3.4-9.1,5.1-19.7,5.1-31.8c0-12.2-1.7-22.7-5.1-31.7c-3.4-9-8.3-15.9-14.6-20.8
			c-6.4-4.9-14.2-7.3-23.3-7.3c-9.3,0-17.2,2.5-23.6,7.6c-6.4,5.1-11.2,12.1-14.5,21c-3.3,9-4.9,19.4-4.9,31.2
			c0,11.9,1.7,22.4,5,31.5c3.3,9.1,8.2,16.2,14.5,21.3C1315.5,334.3,1323.3,336.9,1332.6,336.9z"/>
		<path class="st3" d="M1512.5,455.4c-7.2,0-13.9-0.6-20.2-1.7c-6.3-1.1-11.4-2.5-15.5-4.2l12.8-42.3c6.7,2,12.7,3.1,18,3.3
			c5.4,0.2,10-1.1,14-3.7c3.9-2.7,7.2-7.2,9.7-13.6l3.3-8.7l-73.4-210.4h59.7l42.3,150.2h2.1l42.7-150.2h60.1l-79.5,226.7
			c-3.8,11-9,20.6-15.5,28.8c-6.5,8.2-14.8,14.6-24.7,19C1538.6,453.2,1526.6,455.4,1512.5,455.4z"/>
		<path class="st3" d="M1832.3,378.7h-61.8l94.1-272.7h74.3l94,272.7h-61.8l-68.3-210.4h-2.1L1832.3,378.7z M1828.4,271.5h146v45
			h-146V271.5z"/>
		<path class="st3" d="M2157.1,382.7c-21,0-39-4.5-54-13.4c-15-8.9-26.6-21.3-34.6-37.2c-8-15.9-12.1-34.2-12.1-54.9
			c0-21,4.1-39.4,12.2-55.2c8.1-15.8,19.7-28.2,34.7-37.2c15-8.9,32.8-13.4,53.5-13.4c17.8,0,33.5,3.2,46.9,9.7
			c13.4,6.5,24,15.6,31.8,27.3c7.8,11.7,12.1,25.5,12.9,41.3h-53.5c-1.5-10.2-5.5-18.4-11.9-24.7c-6.4-6.3-14.8-9.4-25.2-9.4
			c-8.8,0-16.4,2.4-23,7.1c-6.5,4.8-11.6,11.7-15.2,20.7c-3.6,9.1-5.5,20-5.5,32.9c0,13.1,1.8,24.1,5.4,33.3
			c3.6,9.1,8.7,16.1,15.2,20.9c6.6,4.8,14.2,7.2,23,7.2c6.5,0,12.3-1.3,17.5-4c5.2-2.7,9.5-6.5,12.9-11.7c3.4-5.1,5.7-11.3,6.7-18.4
			h53.5c-0.9,15.6-5.1,29.4-12.7,41.2c-7.6,11.9-18,21.1-31.4,27.8C2191,379.4,2175.3,382.7,2157.1,382.7z"/>
		<path class="st3" d="M2343.2,382.6c-13.1,0-24.7-2.3-34.9-6.9c-10.2-4.6-18.3-11.4-24.2-20.4c-5.9-9-8.9-20.3-8.9-33.8
			c0-11.4,2.1-20.9,6.3-28.6c4.2-7.7,9.9-13.9,17-18.6c7.2-4.7,15.4-8.3,24.6-10.7s18.8-4.1,29-5.1c11.9-1.2,21.5-2.4,28.8-3.5
			c7.3-1.1,12.6-2.8,15.8-5c3.3-2.2,4.9-5.5,4.9-9.9v-0.8c0-8.4-2.6-15-7.9-19.6c-5.3-4.6-12.8-6.9-22.4-6.9
			c-10.2,0-18.3,2.2-24.4,6.7c-6,4.5-10,10.1-12,16.8l-52.5-4.3c2.7-12.4,7.9-23.2,15.7-32.3c7.8-9.1,17.9-16.1,30.3-21
			s26.7-7.4,43.1-7.4c11.4,0,22.3,1.3,32.7,4c10.4,2.7,19.7,6.8,27.8,12.4c8.1,5.6,14.5,12.8,19.2,21.5c4.7,8.7,7.1,19.2,7.1,31.4
			v138h-53.8v-28.4h-1.6c-3.3,6.4-7.7,12-13.2,16.8c-5.5,4.8-12.1,8.6-19.8,11.3S2353.4,382.6,2343.2,382.6z M2359.5,343.4
			c8.3,0,15.7-1.7,22.1-5c6.4-3.3,11.4-7.8,15-13.5c3.6-5.7,5.5-12.1,5.5-19.3v-21.7c-1.8,1.2-4.2,2.2-7.3,3.1s-6.5,1.8-10.3,2.5
			c-3.8,0.8-7.6,1.4-11.5,2c-3.8,0.6-7.3,1.1-10.4,1.5c-6.7,1-12.5,2.5-17.4,4.7c-5,2.1-8.8,5-11.6,8.6c-2.8,3.6-4.1,8.1-4.1,13.4
			c0,7.7,2.8,13.6,8.5,17.6C2343.6,341.4,2350.8,343.4,2359.5,343.4z"/>
		<path class="st3" d="M2577.9,382c-15.5,0-29.6-4-42.1-12.1c-12.6-8-22.5-19.9-29.8-35.6c-7.3-15.7-11-34.9-11-57.7
			c0-23.4,3.8-42.9,11.3-58.5c7.5-15.6,17.6-27.3,30.2-35c12.6-7.8,26.3-11.7,41.3-11.7c11.5,0,21,1.9,28.7,5.8
			c7.7,3.9,13.9,8.7,18.6,14.4c4.7,5.7,8.4,11.3,10.9,16.8h1.7V106h56.6v272.7h-55.9v-32.8h-2.4c-2.7,5.7-6.4,11.3-11.3,16.8
			c-4.8,5.5-11.1,10.1-18.8,13.8C2598.2,380.2,2588.9,382,2577.9,382z M2595.9,336.9c9.1,0,16.9-2.5,23.2-7.5
			c6.3-5,11.2-12.1,14.6-21.1c3.4-9.1,5.1-19.7,5.1-31.8c0-12.2-1.7-22.7-5.1-31.7c-3.4-9-8.3-15.9-14.6-20.8
			c-6.4-4.9-14.2-7.3-23.3-7.3c-9.3,0-17.2,2.5-23.6,7.6c-6.4,5.1-11.2,12.1-14.5,21c-3.3,9-4.9,19.4-4.9,31.2
			c0,11.9,1.7,22.4,5,31.5c3.3,9.1,8.2,16.2,14.5,21.3C2578.7,334.3,2586.5,336.9,2595.9,336.9z"/>
		<path class="st3" d="M2834,382.7c-21,0-39.1-4.3-54.3-12.9c-15.1-8.6-26.8-20.7-35-36.5c-8.2-15.8-12.3-34.4-12.3-56
			c0-21,4.1-39.5,12.3-55.4c8.2-15.9,19.7-28.3,34.6-37.2c14.9-8.9,32.3-13.3,52.4-13.3c13.5,0,26.1,2.2,37.8,6.5
			c11.7,4.3,21.9,10.8,30.6,19.4c8.7,8.6,15.6,19.4,20.4,32.4c4.9,13,7.3,28.2,7.3,45.6v15.6h-172.7v-35.2h119.3
			c0-8.2-1.8-15.4-5.3-21.7c-3.6-6.3-8.5-11.3-14.7-14.8s-13.5-5.4-21.8-5.4c-8.6,0-16.2,2-22.8,5.9c-6.6,4-11.8,9.2-15.5,15.8
			c-3.7,6.6-5.6,14-5.7,22v33.4c0,10.1,1.9,18.9,5.7,26.2c3.8,7.4,9.1,13.1,16,17s15.1,6,24.6,6c6.3,0,12.1-0.9,17.3-2.7
			c5.2-1.8,9.7-4.4,13.5-8c3.7-3.5,6.6-7.9,8.5-13.1l52.5,3.5c-2.7,12.6-8.1,23.6-16.3,33c-8.2,9.4-18.8,16.6-31.7,21.8
			C2865.7,380.1,2850.8,382.7,2834,382.7z"/>
		<path class="st3" d="M2964.9,378.7V174.1h54.1v36.1h2.4c4.3-12,11.4-21.4,21.3-28.4c9.9-6.9,21.8-10.4,35.7-10.4
			c14,0,26,3.5,35.8,10.5c9.9,7,16.4,16.4,19.7,28.3h2.1c4.2-11.7,11.7-21.1,22.7-28.2c11-7.1,23.9-10.6,39-10.6
			c19.1,0,34.6,6.1,46.5,18.2c11.9,12.1,17.9,29.3,17.9,51.5v137.6h-56.6V252.3c0-11.4-3-19.9-9.1-25.6c-6-5.7-13.6-8.5-22.6-8.5
			c-10.3,0-18.3,3.3-24.1,9.8c-5.8,6.5-8.7,15.1-8.7,25.8v124.9h-55V251.1c0-10-2.9-18-8.6-24c-5.7-5.9-13.2-8.9-22.6-8.9
			c-6.3,0-12,1.6-17,4.7c-5,3.2-9,7.5-11.9,13.2c-2.9,5.6-4.4,12.2-4.4,19.8v122.8H2964.9z"/>
		<path class="st3" d="M3341.9,455.4c-7.2,0-13.9-0.6-20.2-1.7c-6.3-1.1-11.4-2.5-15.5-4.2l12.8-42.3c6.7,2,12.7,3.1,18,3.3
			c5.4,0.2,10-1.1,14-3.7c3.9-2.7,7.2-7.2,9.7-13.6l3.3-8.7l-73.4-210.4h59.7l42.3,150.2h2.1l42.7-150.2h60.1L3418,400.8
			c-3.8,11-9,20.6-15.5,28.8c-6.5,8.2-14.8,14.6-24.7,19C3367.9,453.2,3355.9,455.4,3341.9,455.4z"/>
	</g>
</g>
</svg>
